<svg id="Layer_1" data-name="Layer 1" xmlns="http://www.w3.org/2000/svg" viewBox="0 0 503.56 482.76"><defs><style>.cls-1{fill:#999;}.cls-2{fill:#858c8b;}.cls-3{fill:#ffb000;}.cls-4{fill:#ff9d00;}</style></defs><title>selectedStar</title><path class="cls-1" d="M502.66,193.3a23.64,23.64,0,0,0-18.4-16l-146.4-21.6-65.6-132a23.3,23.3,0,0,0-41.6,0l-65.6,132.8L19.46,177.3c-8.8,1.6-16,7.2-18.4,16-2.4,8-.8,17.6,5.6,24l105.6,103.2L87.46,466.1a23.33,23.33,0,0,0,8.8,22.4c7.2,4.8,16.8,5.6,24,1.6l131.2-68.8,130.4,68.8a24.63,24.63,0,0,0,10.4,2.4,27,27,0,0,0,13.6-4c7.2-4.8,10.4-13.6,8.8-22.4l-24.8-145.6,105.6-103.2A23.46,23.46,0,0,0,502.66,193.3Z" transform="translate(0 -9.9)"/><polygon class="cls-2" points="136.26 471.4 136.26 471.4 251.46 411.4 366.66 471.4 366.66 471.4 251.46 356.2 136.26 471.4"/><path class="cls-2" d="M502.66,193.3a23.64,23.64,0,0,0-18.4-16l-146.4-21.6-65.6-132a23.3,23.3,0,0,0-41.6,0l-65.6,132.8-65.6,9.6,313.6,313.6a16.13,16.13,0,0,0,1.6-13.6l-24.8-145.6,105.6-103.2A23.46,23.46,0,0,0,502.66,193.3Z" transform="translate(0 -9.9)"/><path class="cls-3" d="M251.46,10.9c-8,.8-16,5.6-20,12.8l-65.6,132.8L19.46,177.3c-8.8,1.6-16,7.2-18.4,16-2.4,8-.8,17.6,5.6,24l105.6,103.2L87.46,466.1a23.33,23.33,0,0,0,8.8,22.4,25,25,0,0,0,24.8,1.6l130.4-68V10.9Z" transform="translate(0 -9.9)"/><path class="cls-4" d="M231.46,23.7l-65.6,132.8-64.8,9.6,150.4,149.6V10.9C243.46,11.7,235.46,16.5,231.46,23.7Z" transform="translate(0 -9.9)"/><polygon class="cls-4" points="137.06 471.4 137.06 471.4 251.46 412.2 251.46 357.8 137.06 471.4"/><path class="cls-3" d="M252,10.9V422.1l130.4,68a25,25,0,0,0,24.8-1.6,23.33,23.33,0,0,0,8.8-22.4L391.2,320.5,496.8,217.3c6.4-6.4,8-16,5.6-24-2.4-8.8-9.6-14.4-18.4-16L337.6,156.5,272,23.7c-4-7.2-12-12-20-12.8Z" transform="translate(0 -9.9)"/><path class="cls-4" d="M252,9.9V314.7L402.4,165.1l-64.8-9.6L272,22.7C268,15.5,260,10.7,252,9.9Z" transform="translate(0 -9.9)"/><polygon class="cls-4" points="252 356.8 252 411.2 366.4 470.4 366.4 470.4 252 356.8"/></svg>