<svg id="Layer_1" data-name="Layer 1" xmlns="http://www.w3.org/2000/svg" viewBox="0 0 497.93 476.77"><defs><style>.cls-1{fill:none;stroke:#999;stroke-miterlimit:10;stroke-width:9px;}</style></defs><title>unselectedStar</title><path class="cls-1" d="M495.37,195a23,23,0,0,0-17.86-15.54l-142.15-21L271.66,30.32a22.63,22.63,0,0,0-40.39,0l-63.69,129L26.21,179.46c-8.55,1.56-15.54,7-17.87,15.54-2.33,7.77-.77,17.09,5.44,23.3L116.31,318.5,92.23,459.87a22.65,22.65,0,0,0,8.55,21.75c7,4.66,16.31,5.44,23.3,1.56l127.39-66.81,126.61,66.81a24,24,0,0,0,10.1,2.33,26.17,26.17,0,0,0,13.2-3.89c7-4.66,10.1-13.2,8.55-21.75L385.85,318.5,488.38,218.3A22.77,22.77,0,0,0,495.37,195Z" transform="translate(-2.81 -13.4)"/></svg>